<mxfile host="app.diagrams.net" agent="Mozilla/5.0 (Windows NT 10.0; Win64; x64) AppleWebKit/537.36 (KHTML, like Gecko) Chrome/139.0.0.0 Safari/537.36 Edg/139.0.0.0" version="26.1.0">
  <diagram name="第 1 页" id="QO0NsFHF4I4OuMkYjmgX">
    <mxGraphModel dx="2183" dy="1258" grid="1" gridSize="10" guides="1" tooltips="1" connect="1" arrows="1" fold="1" page="1" pageScale="1" pageWidth="2336" pageHeight="1654" math="0" shadow="0">
      <root>
        <mxCell id="0" />
        <mxCell id="1" parent="0" />
        <mxCell id="ZHDz7OfgChq-oa7-9p8o-2" value="&lt;p style=&quot;margin:0px;margin-top:4px;text-align:center;&quot;&gt;&lt;i&gt;&amp;lt;&amp;lt;Interface&amp;gt;&amp;gt;&lt;/i&gt;&lt;br&gt;&lt;b&gt;SpiderMiddlewarer&lt;/b&gt;&lt;/p&gt;&lt;hr size=&quot;1&quot; style=&quot;border-style:solid;&quot;&gt;&lt;p style=&quot;margin:0px;margin-left:4px;&quot;&gt;+ ProcessStartRequests(Results, *Spider) Results&lt;br&gt;+ ProcessSpiderInput(*Response, *Spider)&lt;/p&gt;&lt;p style=&quot;margin:0px;margin-left:4px;&quot;&gt;+&amp;nbsp;ProcessSpiderOutput(*Response, Results, *Spider) Results&lt;/p&gt;&lt;p style=&quot;margin:0px;margin-left:4px;&quot;&gt;+&amp;nbsp;ProcessSpiderError(*Response, error, *Spider) Results&lt;/p&gt;" style="verticalAlign=top;align=left;overflow=fill;html=1;whiteSpace=wrap;" vertex="1" parent="1">
          <mxGeometry x="280" y="40" width="340" height="110" as="geometry" />
        </mxCell>
        <mxCell id="ZHDz7OfgChq-oa7-9p8o-7" value="&lt;p style=&quot;margin:0px;margin-top:4px;text-align:center;&quot;&gt;&lt;i&gt;&amp;lt;&amp;lt;Interface&amp;gt;&amp;gt;&lt;/i&gt;&lt;br&gt;&lt;b&gt;DownloaderMiddlewarer&lt;/b&gt;&lt;/p&gt;&lt;hr size=&quot;1&quot; style=&quot;border-style:solid;&quot;&gt;&lt;p style=&quot;margin:0px;margin-left:4px;&quot;&gt;+ ProcessRequest(*Request, *Spider) Result&lt;br&gt;+ ProcessResponse(&lt;span style=&quot;background-color: transparent; color: light-dark(rgb(0, 0, 0), rgb(255, 255, 255));&quot;&gt;*Request,&lt;/span&gt;&lt;span style=&quot;background-color: transparent; color: light-dark(rgb(0, 0, 0), rgb(255, 255, 255));&quot;&gt;&amp;nbsp;&lt;/span&gt;&lt;span style=&quot;background-color: transparent; color: light-dark(rgb(0, 0, 0), rgb(255, 255, 255));&quot;&gt;*Response, *Spider) Result&lt;/span&gt;&lt;/p&gt;&lt;p style=&quot;margin:0px;margin-left:4px;&quot;&gt;+&amp;nbsp;ProcessError(*Request, error, *Spider) Result&lt;/p&gt;" style="verticalAlign=top;align=left;overflow=fill;html=1;whiteSpace=wrap;" vertex="1" parent="1">
          <mxGeometry x="280" y="200" width="330" height="100" as="geometry" />
        </mxCell>
        <mxCell id="ZHDz7OfgChq-oa7-9p8o-8" value="&lt;p style=&quot;margin:0px;margin-top:4px;text-align:center;&quot;&gt;&lt;i&gt;&amp;lt;&amp;lt;Interface&amp;gt;&amp;gt;&lt;/i&gt;&lt;br&gt;&lt;b&gt;Middlewarer&lt;/b&gt;&lt;/p&gt;&lt;hr size=&quot;1&quot; style=&quot;border-style:solid;&quot;&gt;&lt;p style=&quot;margin:0px;margin-left:4px;&quot;&gt;+ Name() string&lt;br&gt;+ FromSpider(*Spider)&lt;/p&gt;&lt;p style=&quot;margin:0px;margin-left:4px;&quot;&gt;+&amp;nbsp;Close(*Spider)&lt;/p&gt;" style="verticalAlign=top;align=left;overflow=fill;html=1;whiteSpace=wrap;" vertex="1" parent="1">
          <mxGeometry x="40" y="40" width="140" height="100" as="geometry" />
        </mxCell>
        <mxCell id="ZHDz7OfgChq-oa7-9p8o-11" value="Extends" style="endArrow=block;endSize=16;endFill=0;html=1;rounded=0;exitX=0;exitY=0.5;exitDx=0;exitDy=0;entryX=1;entryY=0.5;entryDx=0;entryDy=0;" edge="1" parent="1" source="ZHDz7OfgChq-oa7-9p8o-2" target="ZHDz7OfgChq-oa7-9p8o-8">
          <mxGeometry width="160" relative="1" as="geometry">
            <mxPoint x="320" y="700" as="sourcePoint" />
            <mxPoint x="480" y="700" as="targetPoint" />
          </mxGeometry>
        </mxCell>
        <mxCell id="ZHDz7OfgChq-oa7-9p8o-12" value="Extends" style="endArrow=block;endSize=16;endFill=0;html=1;rounded=0;exitX=0;exitY=0.5;exitDx=0;exitDy=0;entryX=1;entryY=0.5;entryDx=0;entryDy=0;" edge="1" parent="1" source="ZHDz7OfgChq-oa7-9p8o-7" target="ZHDz7OfgChq-oa7-9p8o-8">
          <mxGeometry width="160" relative="1" as="geometry">
            <mxPoint x="460" y="630" as="sourcePoint" />
            <mxPoint x="420" y="360" as="targetPoint" />
          </mxGeometry>
        </mxCell>
        <mxCell id="ZHDz7OfgChq-oa7-9p8o-82" style="edgeStyle=orthogonalEdgeStyle;rounded=0;orthogonalLoop=1;jettySize=auto;html=1;exitX=0;exitY=0.5;exitDx=0;exitDy=0;entryX=0.5;entryY=0;entryDx=0;entryDy=0;" edge="1" parent="1" source="ZHDz7OfgChq-oa7-9p8o-18" target="ZHDz7OfgChq-oa7-9p8o-32">
          <mxGeometry relative="1" as="geometry" />
        </mxCell>
        <mxCell id="ZHDz7OfgChq-oa7-9p8o-18" value="&lt;p style=&quot;margin:0px;margin-top:4px;text-align:center;&quot;&gt;&lt;b&gt;ProcessStartRequests(Results, *Spider)&lt;/b&gt;&lt;/p&gt;&lt;hr size=&quot;1&quot; style=&quot;border-style:solid;&quot;&gt;&lt;p style=&quot;margin:0px;margin-left:4px;&quot;&gt;1&amp;nbsp;&lt;span style=&quot;background-color: transparent; color: light-dark(rgb(0, 0, 0), rgb(255, 255, 255));&quot;&gt;Results&lt;/span&gt;&lt;/p&gt;&lt;p style=&quot;margin:0px;margin-left:4px;&quot;&gt;2 error&lt;/p&gt;" style="verticalAlign=top;align=left;overflow=fill;html=1;whiteSpace=wrap;" vertex="1" parent="1">
          <mxGeometry x="320" y="450" width="240" height="70" as="geometry" />
        </mxCell>
        <mxCell id="ZHDz7OfgChq-oa7-9p8o-36" style="edgeStyle=orthogonalEdgeStyle;rounded=0;orthogonalLoop=1;jettySize=auto;html=1;exitX=1;exitY=0.5;exitDx=0;exitDy=0;entryX=0;entryY=0.5;entryDx=0;entryDy=0;" edge="1" parent="1" source="ZHDz7OfgChq-oa7-9p8o-19" target="ZHDz7OfgChq-oa7-9p8o-24">
          <mxGeometry relative="1" as="geometry" />
        </mxCell>
        <mxCell id="ZHDz7OfgChq-oa7-9p8o-19" value="&lt;p style=&quot;margin:0px;margin-top:4px;text-align:center;&quot;&gt;&lt;b&gt;ProcessSpiderInput(*Response, *Spider)&lt;/b&gt;&lt;/p&gt;&lt;hr size=&quot;1&quot; style=&quot;border-style:solid;&quot;&gt;&lt;p style=&quot;margin:0px;margin-left:4px;&quot;&gt;3 nil&lt;/p&gt;&lt;p style=&quot;margin:0px;margin-left:4px;&quot;&gt;4 error&lt;/p&gt;" style="verticalAlign=top;align=left;overflow=fill;html=1;whiteSpace=wrap;" vertex="1" parent="1">
          <mxGeometry x="320" y="530" width="240" height="70" as="geometry" />
        </mxCell>
        <mxCell id="ZHDz7OfgChq-oa7-9p8o-65" style="edgeStyle=orthogonalEdgeStyle;rounded=0;orthogonalLoop=1;jettySize=auto;html=1;exitX=0;exitY=0.5;exitDx=0;exitDy=0;entryX=0.75;entryY=1;entryDx=0;entryDy=0;" edge="1" parent="1" source="ZHDz7OfgChq-oa7-9p8o-20" target="ZHDz7OfgChq-oa7-9p8o-32">
          <mxGeometry relative="1" as="geometry" />
        </mxCell>
        <mxCell id="ZHDz7OfgChq-oa7-9p8o-20" value="&lt;p style=&quot;margin:0px;margin-top:4px;text-align:center;&quot;&gt;&lt;b&gt;ProcessSpiderOutput(*Response, Results, *Spider) Results&lt;/b&gt;&lt;/p&gt;&lt;hr size=&quot;1&quot; style=&quot;border-style:solid;&quot;&gt;&lt;p style=&quot;margin: 0px 0px 0px 4px;&quot;&gt;5 Results&lt;/p&gt;&lt;p style=&quot;margin: 0px 0px 0px 4px;&quot;&gt;6 error&lt;/p&gt;" style="verticalAlign=top;align=left;overflow=fill;html=1;whiteSpace=wrap;" vertex="1" parent="1">
          <mxGeometry x="320" y="610" width="240" height="80" as="geometry" />
        </mxCell>
        <mxCell id="ZHDz7OfgChq-oa7-9p8o-64" style="edgeStyle=orthogonalEdgeStyle;rounded=0;orthogonalLoop=1;jettySize=auto;html=1;exitX=0;exitY=0.5;exitDx=0;exitDy=0;entryX=0.5;entryY=1;entryDx=0;entryDy=0;" edge="1" parent="1" source="ZHDz7OfgChq-oa7-9p8o-21" target="ZHDz7OfgChq-oa7-9p8o-32">
          <mxGeometry relative="1" as="geometry" />
        </mxCell>
        <mxCell id="ZHDz7OfgChq-oa7-9p8o-21" value="&lt;p style=&quot;margin:0px;margin-top:4px;text-align:center;&quot;&gt;&lt;b&gt;ProcessSpiderError(*Response, error, *Spider) Results&lt;/b&gt;&lt;/p&gt;&lt;hr size=&quot;1&quot; style=&quot;border-style:solid;&quot;&gt;&lt;p style=&quot;margin: 0px 0px 0px 4px;&quot;&gt;7 nil&lt;span style=&quot;background-color: transparent; color: light-dark(rgb(0, 0, 0), rgb(255, 255, 255));&quot;&gt;、error&lt;/span&gt;&lt;/p&gt;&lt;p style=&quot;margin: 0px 0px 0px 4px;&quot;&gt;8 Results&lt;/p&gt;" style="verticalAlign=top;align=left;overflow=fill;html=1;whiteSpace=wrap;" vertex="1" parent="1">
          <mxGeometry x="320" y="700" width="240" height="80" as="geometry" />
        </mxCell>
        <mxCell id="ZHDz7OfgChq-oa7-9p8o-22" value="" style="shape=image;verticalLabelPosition=bottom;labelBackgroundColor=default;verticalAlign=top;aspect=fixed;imageAspect=0;image=https://docs.scrapy.org/en/latest/_images/scrapy_architecture_02.png;" vertex="1" parent="1">
          <mxGeometry x="1600" y="60.82000000000005" width="683.65" height="459.18" as="geometry" />
        </mxCell>
        <mxCell id="ZHDz7OfgChq-oa7-9p8o-81" style="edgeStyle=orthogonalEdgeStyle;rounded=0;orthogonalLoop=1;jettySize=auto;html=1;exitX=0;exitY=0.5;exitDx=0;exitDy=0;entryX=1;entryY=0.5;entryDx=0;entryDy=0;" edge="1" parent="1" source="ZHDz7OfgChq-oa7-9p8o-23" target="ZHDz7OfgChq-oa7-9p8o-18">
          <mxGeometry relative="1" as="geometry" />
        </mxCell>
        <mxCell id="ZHDz7OfgChq-oa7-9p8o-84" style="edgeStyle=orthogonalEdgeStyle;rounded=0;orthogonalLoop=1;jettySize=auto;html=1;exitX=0;exitY=0.25;exitDx=0;exitDy=0;entryX=1;entryY=0.5;entryDx=0;entryDy=0;" edge="1" parent="1" source="ZHDz7OfgChq-oa7-9p8o-23" target="ZHDz7OfgChq-oa7-9p8o-83">
          <mxGeometry relative="1" as="geometry" />
        </mxCell>
        <mxCell id="ZHDz7OfgChq-oa7-9p8o-85" value="2" style="edgeLabel;html=1;align=center;verticalAlign=middle;resizable=0;points=[];" vertex="1" connectable="0" parent="ZHDz7OfgChq-oa7-9p8o-84">
          <mxGeometry x="0.0855" y="1" relative="1" as="geometry">
            <mxPoint as="offset" />
          </mxGeometry>
        </mxCell>
        <mxCell id="ZHDz7OfgChq-oa7-9p8o-23" value="&lt;p style=&quot;margin:0px;margin-top:4px;text-align:center;&quot;&gt;&lt;b&gt;ProcessStartRequests(Results, *Spider)&lt;/b&gt;&lt;/p&gt;&lt;hr size=&quot;1&quot; style=&quot;border-style:solid;&quot;&gt;&lt;p style=&quot;margin:0px;margin-left:4px;&quot;&gt;1&amp;nbsp;&lt;span style=&quot;background-color: transparent; color: light-dark(rgb(0, 0, 0), rgb(255, 255, 255));&quot;&gt;Results&lt;/span&gt;&lt;/p&gt;&lt;p style=&quot;margin:0px;margin-left:4px;&quot;&gt;2 error&lt;/p&gt;" style="verticalAlign=top;align=left;overflow=fill;html=1;whiteSpace=wrap;" vertex="1" parent="1">
          <mxGeometry x="720" y="450" width="240" height="70" as="geometry" />
        </mxCell>
        <mxCell id="ZHDz7OfgChq-oa7-9p8o-37" style="edgeStyle=orthogonalEdgeStyle;rounded=0;orthogonalLoop=1;jettySize=auto;html=1;exitX=1;exitY=0.5;exitDx=0;exitDy=0;entryX=0;entryY=0.5;entryDx=0;entryDy=0;" edge="1" parent="1" source="ZHDz7OfgChq-oa7-9p8o-24" target="ZHDz7OfgChq-oa7-9p8o-28">
          <mxGeometry relative="1" as="geometry" />
        </mxCell>
        <mxCell id="ZHDz7OfgChq-oa7-9p8o-42" style="edgeStyle=orthogonalEdgeStyle;rounded=0;orthogonalLoop=1;jettySize=auto;html=1;exitX=1;exitY=0.5;exitDx=0;exitDy=0;entryX=0;entryY=0.5;entryDx=0;entryDy=0;" edge="1" parent="1" source="ZHDz7OfgChq-oa7-9p8o-24" target="ZHDz7OfgChq-oa7-9p8o-39">
          <mxGeometry relative="1" as="geometry" />
        </mxCell>
        <mxCell id="ZHDz7OfgChq-oa7-9p8o-43" value="4" style="edgeLabel;html=1;align=center;verticalAlign=middle;resizable=0;points=[];" vertex="1" connectable="0" parent="ZHDz7OfgChq-oa7-9p8o-42">
          <mxGeometry x="0.0447" y="-1" relative="1" as="geometry">
            <mxPoint as="offset" />
          </mxGeometry>
        </mxCell>
        <mxCell id="ZHDz7OfgChq-oa7-9p8o-24" value="&lt;p style=&quot;margin:0px;margin-top:4px;text-align:center;&quot;&gt;&lt;b&gt;ProcessSpiderInput(*Response, *Spider)&lt;/b&gt;&lt;/p&gt;&lt;hr size=&quot;1&quot; style=&quot;border-style:solid;&quot;&gt;&lt;p style=&quot;margin:0px;margin-left:4px;&quot;&gt;3 nil&lt;/p&gt;&lt;p style=&quot;margin:0px;margin-left:4px;&quot;&gt;4 error&lt;/p&gt;" style="verticalAlign=top;align=left;overflow=fill;html=1;whiteSpace=wrap;" vertex="1" parent="1">
          <mxGeometry x="720" y="530" width="240" height="70" as="geometry" />
        </mxCell>
        <mxCell id="ZHDz7OfgChq-oa7-9p8o-61" style="edgeStyle=orthogonalEdgeStyle;rounded=0;orthogonalLoop=1;jettySize=auto;html=1;exitX=0;exitY=0.5;exitDx=0;exitDy=0;entryX=1;entryY=0.5;entryDx=0;entryDy=0;" edge="1" parent="1" source="ZHDz7OfgChq-oa7-9p8o-25" target="ZHDz7OfgChq-oa7-9p8o-20">
          <mxGeometry relative="1" as="geometry" />
        </mxCell>
        <mxCell id="ZHDz7OfgChq-oa7-9p8o-74" style="edgeStyle=orthogonalEdgeStyle;rounded=0;orthogonalLoop=1;jettySize=auto;html=1;exitX=0;exitY=0.75;exitDx=0;exitDy=0;entryX=0.5;entryY=1;entryDx=0;entryDy=0;" edge="1" parent="1" source="ZHDz7OfgChq-oa7-9p8o-25" target="ZHDz7OfgChq-oa7-9p8o-30">
          <mxGeometry relative="1" as="geometry">
            <Array as="points">
              <mxPoint x="650" y="670" />
              <mxPoint x="650" y="800" />
              <mxPoint x="1240" y="800" />
            </Array>
          </mxGeometry>
        </mxCell>
        <mxCell id="ZHDz7OfgChq-oa7-9p8o-75" value="6" style="edgeLabel;html=1;align=center;verticalAlign=middle;resizable=0;points=[];" vertex="1" connectable="0" parent="ZHDz7OfgChq-oa7-9p8o-74">
          <mxGeometry x="-0.729" y="-2" relative="1" as="geometry">
            <mxPoint as="offset" />
          </mxGeometry>
        </mxCell>
        <mxCell id="ZHDz7OfgChq-oa7-9p8o-25" value="&lt;p style=&quot;margin:0px;margin-top:4px;text-align:center;&quot;&gt;&lt;b&gt;ProcessSpiderOutput(*Response, Results, *Spider) Results&lt;/b&gt;&lt;/p&gt;&lt;hr size=&quot;1&quot; style=&quot;border-style:solid;&quot;&gt;&lt;p style=&quot;margin: 0px 0px 0px 4px;&quot;&gt;5 Results&lt;/p&gt;&lt;p style=&quot;margin: 0px 0px 0px 4px;&quot;&gt;6 error&lt;/p&gt;" style="verticalAlign=top;align=left;overflow=fill;html=1;whiteSpace=wrap;" vertex="1" parent="1">
          <mxGeometry x="720" y="610" width="240" height="80" as="geometry" />
        </mxCell>
        <mxCell id="ZHDz7OfgChq-oa7-9p8o-63" style="edgeStyle=orthogonalEdgeStyle;rounded=0;orthogonalLoop=1;jettySize=auto;html=1;exitX=0;exitY=0.5;exitDx=0;exitDy=0;entryX=1;entryY=0.5;entryDx=0;entryDy=0;" edge="1" parent="1" source="ZHDz7OfgChq-oa7-9p8o-26" target="ZHDz7OfgChq-oa7-9p8o-21">
          <mxGeometry relative="1" as="geometry" />
        </mxCell>
        <mxCell id="ZHDz7OfgChq-oa7-9p8o-77" style="edgeStyle=orthogonalEdgeStyle;rounded=0;orthogonalLoop=1;jettySize=auto;html=1;exitX=0;exitY=0.25;exitDx=0;exitDy=0;entryX=1;entryY=0.75;entryDx=0;entryDy=0;" edge="1" parent="1" source="ZHDz7OfgChq-oa7-9p8o-26" target="ZHDz7OfgChq-oa7-9p8o-20">
          <mxGeometry relative="1" as="geometry" />
        </mxCell>
        <mxCell id="ZHDz7OfgChq-oa7-9p8o-78" value="8" style="edgeLabel;html=1;align=center;verticalAlign=middle;resizable=0;points=[];" vertex="1" connectable="0" parent="ZHDz7OfgChq-oa7-9p8o-77">
          <mxGeometry x="0.5579" y="-1" relative="1" as="geometry">
            <mxPoint as="offset" />
          </mxGeometry>
        </mxCell>
        <mxCell id="ZHDz7OfgChq-oa7-9p8o-26" value="&lt;p style=&quot;margin:0px;margin-top:4px;text-align:center;&quot;&gt;&lt;b&gt;ProcessSpiderError(*Response, error, *Spider) Results&lt;/b&gt;&lt;/p&gt;&lt;hr size=&quot;1&quot; style=&quot;border-style:solid;&quot;&gt;&lt;p style=&quot;margin: 0px 0px 0px 4px;&quot;&gt;7 nil&lt;span style=&quot;background-color: transparent; color: light-dark(rgb(0, 0, 0), rgb(255, 255, 255));&quot;&gt;、error&lt;/span&gt;&lt;/p&gt;&lt;p style=&quot;margin: 0px 0px 0px 4px;&quot;&gt;8 Results&lt;/p&gt;" style="verticalAlign=top;align=left;overflow=fill;html=1;whiteSpace=wrap;" vertex="1" parent="1">
          <mxGeometry x="720" y="700" width="240" height="80" as="geometry" />
        </mxCell>
        <mxCell id="ZHDz7OfgChq-oa7-9p8o-80" style="edgeStyle=orthogonalEdgeStyle;rounded=0;orthogonalLoop=1;jettySize=auto;html=1;exitX=0;exitY=0.5;exitDx=0;exitDy=0;entryX=1;entryY=0.5;entryDx=0;entryDy=0;" edge="1" parent="1" source="ZHDz7OfgChq-oa7-9p8o-27" target="ZHDz7OfgChq-oa7-9p8o-23">
          <mxGeometry relative="1" as="geometry" />
        </mxCell>
        <mxCell id="ZHDz7OfgChq-oa7-9p8o-27" value="&lt;p style=&quot;margin:0px;margin-top:4px;text-align:center;&quot;&gt;&lt;b&gt;ProcessStartRequests(Results, *Spider)&lt;/b&gt;&lt;/p&gt;&lt;hr size=&quot;1&quot; style=&quot;border-style:solid;&quot;&gt;&lt;p style=&quot;margin:0px;margin-left:4px;&quot;&gt;1&amp;nbsp;&lt;span style=&quot;background-color: transparent; color: light-dark(rgb(0, 0, 0), rgb(255, 255, 255));&quot;&gt;Results&lt;/span&gt;&lt;/p&gt;&lt;p style=&quot;margin:0px;margin-left:4px;&quot;&gt;2 error&lt;/p&gt;" style="verticalAlign=top;align=left;overflow=fill;html=1;whiteSpace=wrap;" vertex="1" parent="1">
          <mxGeometry x="1120" y="450" width="240" height="70" as="geometry" />
        </mxCell>
        <mxCell id="ZHDz7OfgChq-oa7-9p8o-38" style="edgeStyle=orthogonalEdgeStyle;rounded=0;orthogonalLoop=1;jettySize=auto;html=1;exitX=1;exitY=0.5;exitDx=0;exitDy=0;entryX=0;entryY=0.5;entryDx=0;entryDy=0;" edge="1" parent="1" source="ZHDz7OfgChq-oa7-9p8o-28" target="ZHDz7OfgChq-oa7-9p8o-31">
          <mxGeometry relative="1" as="geometry" />
        </mxCell>
        <mxCell id="ZHDz7OfgChq-oa7-9p8o-28" value="&lt;p style=&quot;margin:0px;margin-top:4px;text-align:center;&quot;&gt;&lt;b&gt;ProcessSpiderInput(*Response, *Spider)&lt;/b&gt;&lt;/p&gt;&lt;hr size=&quot;1&quot; style=&quot;border-style:solid;&quot;&gt;&lt;p style=&quot;margin:0px;margin-left:4px;&quot;&gt;3 nil&lt;/p&gt;&lt;p style=&quot;margin:0px;margin-left:4px;&quot;&gt;4 error&lt;/p&gt;" style="verticalAlign=top;align=left;overflow=fill;html=1;whiteSpace=wrap;" vertex="1" parent="1">
          <mxGeometry x="1120" y="530" width="240" height="70" as="geometry" />
        </mxCell>
        <mxCell id="ZHDz7OfgChq-oa7-9p8o-60" style="edgeStyle=orthogonalEdgeStyle;rounded=0;orthogonalLoop=1;jettySize=auto;html=1;exitX=0;exitY=0.5;exitDx=0;exitDy=0;entryX=1;entryY=0.5;entryDx=0;entryDy=0;" edge="1" parent="1" source="ZHDz7OfgChq-oa7-9p8o-29" target="ZHDz7OfgChq-oa7-9p8o-25">
          <mxGeometry relative="1" as="geometry" />
        </mxCell>
        <mxCell id="ZHDz7OfgChq-oa7-9p8o-29" value="&lt;p style=&quot;margin:0px;margin-top:4px;text-align:center;&quot;&gt;&lt;b&gt;ProcessSpiderOutput(*Response, Results, *Spider) Results&lt;/b&gt;&lt;/p&gt;&lt;hr size=&quot;1&quot; style=&quot;border-style:solid;&quot;&gt;&lt;p style=&quot;margin:0px;margin-left:4px;&quot;&gt;5 Results&lt;/p&gt;&lt;p style=&quot;margin:0px;margin-left:4px;&quot;&gt;6 error&lt;/p&gt;" style="verticalAlign=top;align=left;overflow=fill;html=1;whiteSpace=wrap;" vertex="1" parent="1">
          <mxGeometry x="1120" y="610" width="240" height="80" as="geometry" />
        </mxCell>
        <mxCell id="ZHDz7OfgChq-oa7-9p8o-62" style="edgeStyle=orthogonalEdgeStyle;rounded=0;orthogonalLoop=1;jettySize=auto;html=1;exitX=0;exitY=0.5;exitDx=0;exitDy=0;entryX=1;entryY=0.5;entryDx=0;entryDy=0;" edge="1" parent="1" source="ZHDz7OfgChq-oa7-9p8o-30" target="ZHDz7OfgChq-oa7-9p8o-26">
          <mxGeometry relative="1" as="geometry" />
        </mxCell>
        <mxCell id="ZHDz7OfgChq-oa7-9p8o-76" value="7" style="edgeLabel;html=1;align=center;verticalAlign=middle;resizable=0;points=[];" vertex="1" connectable="0" parent="ZHDz7OfgChq-oa7-9p8o-62">
          <mxGeometry x="-0.0417" relative="1" as="geometry">
            <mxPoint as="offset" />
          </mxGeometry>
        </mxCell>
        <mxCell id="ZHDz7OfgChq-oa7-9p8o-30" value="&lt;p style=&quot;margin:0px;margin-top:4px;text-align:center;&quot;&gt;&lt;b&gt;ProcessSpiderError(*Response, error, *Spider) Results&lt;/b&gt;&lt;/p&gt;&lt;hr size=&quot;1&quot; style=&quot;border-style:solid;&quot;&gt;&lt;p style=&quot;margin:0px;margin-left:4px;&quot;&gt;7 nil、error&lt;/p&gt;&lt;p style=&quot;margin:0px;margin-left:4px;&quot;&gt;8 Results&lt;/p&gt;" style="verticalAlign=top;align=left;overflow=fill;html=1;whiteSpace=wrap;" vertex="1" parent="1">
          <mxGeometry x="1120" y="700" width="240" height="80" as="geometry" />
        </mxCell>
        <mxCell id="ZHDz7OfgChq-oa7-9p8o-66" style="edgeStyle=orthogonalEdgeStyle;rounded=0;orthogonalLoop=1;jettySize=auto;html=1;exitX=0;exitY=0.75;exitDx=0;exitDy=0;entryX=1;entryY=0.75;entryDx=0;entryDy=0;" edge="1" parent="1" source="ZHDz7OfgChq-oa7-9p8o-31" target="ZHDz7OfgChq-oa7-9p8o-29">
          <mxGeometry relative="1" as="geometry" />
        </mxCell>
        <mxCell id="ZHDz7OfgChq-oa7-9p8o-67" style="edgeStyle=orthogonalEdgeStyle;rounded=0;orthogonalLoop=1;jettySize=auto;html=1;exitX=0.5;exitY=1;exitDx=0;exitDy=0;entryX=1;entryY=0.5;entryDx=0;entryDy=0;" edge="1" parent="1" source="ZHDz7OfgChq-oa7-9p8o-31" target="ZHDz7OfgChq-oa7-9p8o-30">
          <mxGeometry relative="1" as="geometry" />
        </mxCell>
        <mxCell id="ZHDz7OfgChq-oa7-9p8o-79" style="edgeStyle=orthogonalEdgeStyle;rounded=0;orthogonalLoop=1;jettySize=auto;html=1;exitX=0.5;exitY=0;exitDx=0;exitDy=0;entryX=1;entryY=0.5;entryDx=0;entryDy=0;" edge="1" parent="1" source="ZHDz7OfgChq-oa7-9p8o-31" target="ZHDz7OfgChq-oa7-9p8o-27">
          <mxGeometry relative="1" as="geometry" />
        </mxCell>
        <mxCell id="ZHDz7OfgChq-oa7-9p8o-31" value="Spider" style="html=1;whiteSpace=wrap;" vertex="1" parent="1">
          <mxGeometry x="1500" y="590" width="110" height="50" as="geometry" />
        </mxCell>
        <mxCell id="ZHDz7OfgChq-oa7-9p8o-35" style="edgeStyle=orthogonalEdgeStyle;rounded=0;orthogonalLoop=1;jettySize=auto;html=1;exitX=1;exitY=0.5;exitDx=0;exitDy=0;entryX=0;entryY=0.5;entryDx=0;entryDy=0;" edge="1" parent="1" source="ZHDz7OfgChq-oa7-9p8o-32" target="ZHDz7OfgChq-oa7-9p8o-19">
          <mxGeometry relative="1" as="geometry" />
        </mxCell>
        <mxCell id="ZHDz7OfgChq-oa7-9p8o-32" value="Engine" style="html=1;whiteSpace=wrap;" vertex="1" parent="1">
          <mxGeometry x="70" y="580" width="110" height="50" as="geometry" />
        </mxCell>
        <mxCell id="ZHDz7OfgChq-oa7-9p8o-54" value="" style="edgeStyle=orthogonalEdgeStyle;rounded=0;orthogonalLoop=1;jettySize=auto;html=1;" edge="1" parent="1" source="ZHDz7OfgChq-oa7-9p8o-39" target="ZHDz7OfgChq-oa7-9p8o-53">
          <mxGeometry relative="1" as="geometry" />
        </mxCell>
        <mxCell id="ZHDz7OfgChq-oa7-9p8o-55" value="yes" style="edgeLabel;html=1;align=center;verticalAlign=middle;resizable=0;points=[];" vertex="1" connectable="0" parent="ZHDz7OfgChq-oa7-9p8o-54">
          <mxGeometry x="-0.1556" y="1" relative="1" as="geometry">
            <mxPoint as="offset" />
          </mxGeometry>
        </mxCell>
        <mxCell id="ZHDz7OfgChq-oa7-9p8o-72" style="edgeStyle=orthogonalEdgeStyle;rounded=0;orthogonalLoop=1;jettySize=auto;html=1;exitX=1;exitY=0.5;exitDx=0;exitDy=0;entryX=1;entryY=0.75;entryDx=0;entryDy=0;" edge="1" parent="1" source="ZHDz7OfgChq-oa7-9p8o-39" target="ZHDz7OfgChq-oa7-9p8o-30">
          <mxGeometry relative="1" as="geometry">
            <Array as="points">
              <mxPoint x="1470" y="180" />
              <mxPoint x="1470" y="760" />
            </Array>
          </mxGeometry>
        </mxCell>
        <mxCell id="ZHDz7OfgChq-oa7-9p8o-73" value="no" style="edgeLabel;html=1;align=center;verticalAlign=middle;resizable=0;points=[];" vertex="1" connectable="0" parent="ZHDz7OfgChq-oa7-9p8o-72">
          <mxGeometry x="-0.7866" y="-2" relative="1" as="geometry">
            <mxPoint as="offset" />
          </mxGeometry>
        </mxCell>
        <mxCell id="ZHDz7OfgChq-oa7-9p8o-39" value="HasErrback" style="rhombus;whiteSpace=wrap;html=1;fontColor=#000000;fillColor=#ffffc0;strokeColor=#ff0000;" vertex="1" parent="1">
          <mxGeometry x="1200" y="160" width="80" height="40" as="geometry" />
        </mxCell>
        <mxCell id="ZHDz7OfgChq-oa7-9p8o-68" style="edgeStyle=orthogonalEdgeStyle;rounded=0;orthogonalLoop=1;jettySize=auto;html=1;exitX=1;exitY=0.75;exitDx=0;exitDy=0;entryX=1;entryY=0.5;entryDx=0;entryDy=0;" edge="1" parent="1" source="ZHDz7OfgChq-oa7-9p8o-53" target="ZHDz7OfgChq-oa7-9p8o-29">
          <mxGeometry relative="1" as="geometry" />
        </mxCell>
        <mxCell id="ZHDz7OfgChq-oa7-9p8o-69" value="9" style="edgeLabel;html=1;align=center;verticalAlign=middle;resizable=0;points=[];" vertex="1" connectable="0" parent="ZHDz7OfgChq-oa7-9p8o-68">
          <mxGeometry x="-0.1077" y="3" relative="1" as="geometry">
            <mxPoint as="offset" />
          </mxGeometry>
        </mxCell>
        <mxCell id="ZHDz7OfgChq-oa7-9p8o-70" style="edgeStyle=orthogonalEdgeStyle;rounded=0;orthogonalLoop=1;jettySize=auto;html=1;exitX=1;exitY=0.5;exitDx=0;exitDy=0;entryX=1;entryY=0.25;entryDx=0;entryDy=0;" edge="1" parent="1" source="ZHDz7OfgChq-oa7-9p8o-53" target="ZHDz7OfgChq-oa7-9p8o-30">
          <mxGeometry relative="1" as="geometry">
            <Array as="points">
              <mxPoint x="1450" y="315" />
              <mxPoint x="1450" y="720" />
            </Array>
          </mxGeometry>
        </mxCell>
        <mxCell id="ZHDz7OfgChq-oa7-9p8o-71" value="10" style="edgeLabel;html=1;align=center;verticalAlign=middle;resizable=0;points=[];" vertex="1" connectable="0" parent="ZHDz7OfgChq-oa7-9p8o-70">
          <mxGeometry x="-0.0872" y="2" relative="1" as="geometry">
            <mxPoint as="offset" />
          </mxGeometry>
        </mxCell>
        <mxCell id="ZHDz7OfgChq-oa7-9p8o-53" value="&lt;p style=&quot;margin:0px;margin-top:4px;text-align:center;&quot;&gt;&lt;b&gt;ErrbackFunc&lt;/b&gt;&lt;/p&gt;&lt;hr size=&quot;1&quot; style=&quot;border-style:solid;&quot;&gt;&lt;p style=&quot;margin:0px;margin-left:4px;&quot;&gt;9 Results&lt;/p&gt;&lt;p style=&quot;margin:0px;margin-left:4px;&quot;&gt;10 error&lt;/p&gt;" style="verticalAlign=top;align=left;overflow=fill;html=1;whiteSpace=wrap;" vertex="1" parent="1">
          <mxGeometry x="1120" y="280" width="240" height="70" as="geometry" />
        </mxCell>
        <mxCell id="ZHDz7OfgChq-oa7-9p8o-83" value="关闭爬虫" style="html=1;whiteSpace=wrap;" vertex="1" parent="1">
          <mxGeometry x="420" y="340" width="110" height="50" as="geometry" />
        </mxCell>
        <mxCell id="ZHDz7OfgChq-oa7-9p8o-98" style="edgeStyle=orthogonalEdgeStyle;rounded=0;orthogonalLoop=1;jettySize=auto;html=1;exitX=1;exitY=0.5;exitDx=0;exitDy=0;entryX=0;entryY=0.5;entryDx=0;entryDy=0;" edge="1" parent="1" source="ZHDz7OfgChq-oa7-9p8o-86" target="ZHDz7OfgChq-oa7-9p8o-90">
          <mxGeometry relative="1" as="geometry" />
        </mxCell>
        <mxCell id="ZHDz7OfgChq-oa7-9p8o-112" value="1" style="edgeLabel;html=1;align=center;verticalAlign=middle;resizable=0;points=[];" vertex="1" connectable="0" parent="ZHDz7OfgChq-oa7-9p8o-98">
          <mxGeometry x="-0.045" y="1" relative="1" as="geometry">
            <mxPoint as="offset" />
          </mxGeometry>
        </mxCell>
        <mxCell id="ZHDz7OfgChq-oa7-9p8o-113" style="edgeStyle=orthogonalEdgeStyle;rounded=0;orthogonalLoop=1;jettySize=auto;html=1;exitX=0.5;exitY=0;exitDx=0;exitDy=0;entryX=0.5;entryY=0;entryDx=0;entryDy=0;" edge="1" parent="1" source="ZHDz7OfgChq-oa7-9p8o-86" target="ZHDz7OfgChq-oa7-9p8o-89">
          <mxGeometry relative="1" as="geometry" />
        </mxCell>
        <mxCell id="ZHDz7OfgChq-oa7-9p8o-114" value="2" style="edgeLabel;html=1;align=center;verticalAlign=middle;resizable=0;points=[];" vertex="1" connectable="0" parent="ZHDz7OfgChq-oa7-9p8o-113">
          <mxGeometry x="-0.2543" y="-1" relative="1" as="geometry">
            <mxPoint as="offset" />
          </mxGeometry>
        </mxCell>
        <mxCell id="ZHDz7OfgChq-oa7-9p8o-86" value="&lt;p style=&quot;margin:0px;margin-top:4px;text-align:center;&quot;&gt;&lt;b&gt;ProcessRequest(*Request, *Spider) Result&lt;/b&gt;&lt;/p&gt;&lt;hr size=&quot;1&quot; style=&quot;border-style:solid;&quot;&gt;&lt;p style=&quot;margin:0px;margin-left:4px;&quot;&gt;1 nil&lt;/p&gt;&lt;p style=&quot;margin:0px;margin-left:4px;&quot;&gt;2 *Request&lt;/p&gt;&lt;p style=&quot;margin:0px;margin-left:4px;&quot;&gt;3 *Response&lt;/p&gt;&lt;p style=&quot;margin:0px;margin-left:4px;&quot;&gt;4 error&lt;/p&gt;" style="verticalAlign=top;align=left;overflow=fill;html=1;whiteSpace=wrap;" vertex="1" parent="1">
          <mxGeometry x="320" y="1000" width="240" height="110" as="geometry" />
        </mxCell>
        <mxCell id="ZHDz7OfgChq-oa7-9p8o-106" style="edgeStyle=orthogonalEdgeStyle;rounded=0;orthogonalLoop=1;jettySize=auto;html=1;exitX=0;exitY=0.5;exitDx=0;exitDy=0;entryX=1;entryY=0.5;entryDx=0;entryDy=0;" edge="1" parent="1" source="ZHDz7OfgChq-oa7-9p8o-87" target="ZHDz7OfgChq-oa7-9p8o-89">
          <mxGeometry relative="1" as="geometry" />
        </mxCell>
        <mxCell id="ZHDz7OfgChq-oa7-9p8o-87" value="&lt;p style=&quot;margin:0px;margin-top:4px;text-align:center;&quot;&gt;&lt;b&gt;ProcessResponse(*Request, *Response, *Spider) Result&lt;/b&gt;&lt;/p&gt;&lt;hr size=&quot;1&quot; style=&quot;border-style:solid;&quot;&gt;&lt;p style=&quot;margin:0px;margin-left:4px;&quot;&gt;&lt;span style=&quot;background-color: transparent; color: light-dark(rgb(0, 0, 0), rgb(255, 255, 255));&quot;&gt;5 *Request&lt;/span&gt;&lt;/p&gt;&lt;p style=&quot;margin:0px;margin-left:4px;&quot;&gt;6 *Response&lt;/p&gt;&lt;p style=&quot;margin:0px;margin-left:4px;&quot;&gt;7 error&lt;/p&gt;" style="verticalAlign=top;align=left;overflow=fill;html=1;whiteSpace=wrap;" vertex="1" parent="1">
          <mxGeometry x="320" y="1130" width="240" height="110" as="geometry" />
        </mxCell>
        <mxCell id="ZHDz7OfgChq-oa7-9p8o-120" style="edgeStyle=orthogonalEdgeStyle;rounded=0;orthogonalLoop=1;jettySize=auto;html=1;exitX=0;exitY=0.5;exitDx=0;exitDy=0;" edge="1" parent="1" source="ZHDz7OfgChq-oa7-9p8o-88" target="ZHDz7OfgChq-oa7-9p8o-119">
          <mxGeometry relative="1" as="geometry" />
        </mxCell>
        <mxCell id="ZHDz7OfgChq-oa7-9p8o-121" value="8" style="edgeLabel;html=1;align=center;verticalAlign=middle;resizable=0;points=[];" vertex="1" connectable="0" parent="ZHDz7OfgChq-oa7-9p8o-120">
          <mxGeometry x="0.2164" y="-2" relative="1" as="geometry">
            <mxPoint as="offset" />
          </mxGeometry>
        </mxCell>
        <mxCell id="ZHDz7OfgChq-oa7-9p8o-88" value="&lt;p style=&quot;margin:0px;margin-top:4px;text-align:center;&quot;&gt;&lt;b&gt;ProcessError(*Request, error, *Spider) Result&lt;/b&gt;&lt;/p&gt;&lt;hr size=&quot;1&quot; style=&quot;border-style:solid;&quot;&gt;&lt;p style=&quot;margin: 0px 0px 0px 4px;&quot;&gt;8 nil、error&lt;/p&gt;&lt;p style=&quot;margin: 0px 0px 0px 4px;&quot;&gt;9 *Request&lt;/p&gt;&lt;p style=&quot;margin: 0px 0px 0px 4px;&quot;&gt;10 *Response&lt;/p&gt;" style="verticalAlign=top;align=left;overflow=fill;html=1;whiteSpace=wrap;" vertex="1" parent="1">
          <mxGeometry x="320" y="1260" width="240" height="110" as="geometry" />
        </mxCell>
        <mxCell id="ZHDz7OfgChq-oa7-9p8o-97" style="edgeStyle=orthogonalEdgeStyle;rounded=0;orthogonalLoop=1;jettySize=auto;html=1;exitX=1;exitY=0.25;exitDx=0;exitDy=0;entryX=0;entryY=0.5;entryDx=0;entryDy=0;" edge="1" parent="1" source="ZHDz7OfgChq-oa7-9p8o-89" target="ZHDz7OfgChq-oa7-9p8o-86">
          <mxGeometry relative="1" as="geometry" />
        </mxCell>
        <mxCell id="ZHDz7OfgChq-oa7-9p8o-89" value="Engine" style="html=1;whiteSpace=wrap;" vertex="1" parent="1">
          <mxGeometry x="70" y="1160" width="110" height="50" as="geometry" />
        </mxCell>
        <mxCell id="ZHDz7OfgChq-oa7-9p8o-99" style="edgeStyle=orthogonalEdgeStyle;rounded=0;orthogonalLoop=1;jettySize=auto;html=1;exitX=1;exitY=0.5;exitDx=0;exitDy=0;entryX=0;entryY=0.5;entryDx=0;entryDy=0;" edge="1" parent="1" source="ZHDz7OfgChq-oa7-9p8o-90" target="ZHDz7OfgChq-oa7-9p8o-93">
          <mxGeometry relative="1" as="geometry" />
        </mxCell>
        <mxCell id="ZHDz7OfgChq-oa7-9p8o-115" style="edgeStyle=orthogonalEdgeStyle;rounded=0;orthogonalLoop=1;jettySize=auto;html=1;exitX=0.5;exitY=0;exitDx=0;exitDy=0;entryX=1;entryY=0.25;entryDx=0;entryDy=0;" edge="1" parent="1" source="ZHDz7OfgChq-oa7-9p8o-90" target="ZHDz7OfgChq-oa7-9p8o-94">
          <mxGeometry relative="1" as="geometry">
            <Array as="points">
              <mxPoint x="840" y="920" />
              <mxPoint x="1380" y="920" />
              <mxPoint x="1380" y="1158" />
            </Array>
          </mxGeometry>
        </mxCell>
        <mxCell id="ZHDz7OfgChq-oa7-9p8o-116" value="3" style="edgeLabel;html=1;align=center;verticalAlign=middle;resizable=0;points=[];" vertex="1" connectable="0" parent="ZHDz7OfgChq-oa7-9p8o-115">
          <mxGeometry x="-0.2821" y="-1" relative="1" as="geometry">
            <mxPoint as="offset" />
          </mxGeometry>
        </mxCell>
        <mxCell id="ZHDz7OfgChq-oa7-9p8o-117" style="edgeStyle=orthogonalEdgeStyle;rounded=0;orthogonalLoop=1;jettySize=auto;html=1;exitX=0.25;exitY=0;exitDx=0;exitDy=0;entryX=1;entryY=0.75;entryDx=0;entryDy=0;" edge="1" parent="1" source="ZHDz7OfgChq-oa7-9p8o-90" target="ZHDz7OfgChq-oa7-9p8o-95">
          <mxGeometry relative="1" as="geometry">
            <Array as="points">
              <mxPoint x="780" y="880" />
              <mxPoint x="1410" y="880" />
              <mxPoint x="1410" y="1343" />
            </Array>
          </mxGeometry>
        </mxCell>
        <mxCell id="ZHDz7OfgChq-oa7-9p8o-118" value="4" style="edgeLabel;html=1;align=center;verticalAlign=middle;resizable=0;points=[];" vertex="1" connectable="0" parent="ZHDz7OfgChq-oa7-9p8o-117">
          <mxGeometry x="-0.3368" y="1" relative="1" as="geometry">
            <mxPoint as="offset" />
          </mxGeometry>
        </mxCell>
        <mxCell id="ZHDz7OfgChq-oa7-9p8o-90" value="&lt;p style=&quot;margin:0px;margin-top:4px;text-align:center;&quot;&gt;&lt;b&gt;ProcessRequest(*Request, *Spider) Result&lt;/b&gt;&lt;/p&gt;&lt;hr size=&quot;1&quot; style=&quot;border-style:solid;&quot;&gt;&lt;p style=&quot;margin:0px;margin-left:4px;&quot;&gt;1 nil&lt;/p&gt;&lt;p style=&quot;margin:0px;margin-left:4px;&quot;&gt;2 *Request&lt;/p&gt;&lt;p style=&quot;margin:0px;margin-left:4px;&quot;&gt;3 *Response&lt;/p&gt;&lt;p style=&quot;margin:0px;margin-left:4px;&quot;&gt;4 error&lt;/p&gt;" style="verticalAlign=top;align=left;overflow=fill;html=1;whiteSpace=wrap;" vertex="1" parent="1">
          <mxGeometry x="720" y="1000" width="240" height="110" as="geometry" />
        </mxCell>
        <mxCell id="ZHDz7OfgChq-oa7-9p8o-103" style="edgeStyle=orthogonalEdgeStyle;rounded=0;orthogonalLoop=1;jettySize=auto;html=1;exitX=0;exitY=0.5;exitDx=0;exitDy=0;entryX=1;entryY=0.5;entryDx=0;entryDy=0;" edge="1" parent="1" source="ZHDz7OfgChq-oa7-9p8o-91" target="ZHDz7OfgChq-oa7-9p8o-87">
          <mxGeometry relative="1" as="geometry" />
        </mxCell>
        <mxCell id="ZHDz7OfgChq-oa7-9p8o-123" style="edgeStyle=orthogonalEdgeStyle;rounded=0;orthogonalLoop=1;jettySize=auto;html=1;exitX=0;exitY=0.25;exitDx=0;exitDy=0;entryX=0.25;entryY=0;entryDx=0;entryDy=0;" edge="1" parent="1" source="ZHDz7OfgChq-oa7-9p8o-91" target="ZHDz7OfgChq-oa7-9p8o-89">
          <mxGeometry relative="1" as="geometry">
            <Array as="points">
              <mxPoint x="630" y="1157" />
              <mxPoint x="630" y="880" />
              <mxPoint x="98" y="880" />
            </Array>
          </mxGeometry>
        </mxCell>
        <mxCell id="ZHDz7OfgChq-oa7-9p8o-124" value="5" style="edgeLabel;html=1;align=center;verticalAlign=middle;resizable=0;points=[];" vertex="1" connectable="0" parent="ZHDz7OfgChq-oa7-9p8o-123">
          <mxGeometry x="0.0838" y="-1" relative="1" as="geometry">
            <mxPoint as="offset" />
          </mxGeometry>
        </mxCell>
        <mxCell id="ZHDz7OfgChq-oa7-9p8o-125" style="edgeStyle=orthogonalEdgeStyle;rounded=0;orthogonalLoop=1;jettySize=auto;html=1;exitX=0;exitY=0.75;exitDx=0;exitDy=0;entryX=1;entryY=0.5;entryDx=0;entryDy=0;" edge="1" parent="1" source="ZHDz7OfgChq-oa7-9p8o-91" target="ZHDz7OfgChq-oa7-9p8o-119">
          <mxGeometry relative="1" as="geometry">
            <Array as="points">
              <mxPoint x="610" y="1213" />
              <mxPoint x="610" y="1485" />
            </Array>
          </mxGeometry>
        </mxCell>
        <mxCell id="ZHDz7OfgChq-oa7-9p8o-126" value="7" style="edgeLabel;html=1;align=center;verticalAlign=middle;resizable=0;points=[];" vertex="1" connectable="0" parent="ZHDz7OfgChq-oa7-9p8o-125">
          <mxGeometry x="-0.0188" y="4" relative="1" as="geometry">
            <mxPoint as="offset" />
          </mxGeometry>
        </mxCell>
        <mxCell id="ZHDz7OfgChq-oa7-9p8o-91" value="&lt;p style=&quot;margin:0px;margin-top:4px;text-align:center;&quot;&gt;&lt;b&gt;ProcessResponse(*Request, *Response, *Spider) Result&lt;/b&gt;&lt;/p&gt;&lt;hr size=&quot;1&quot; style=&quot;border-style:solid;&quot;&gt;&lt;p style=&quot;margin:0px;margin-left:4px;&quot;&gt;&lt;span style=&quot;background-color: transparent; color: light-dark(rgb(0, 0, 0), rgb(255, 255, 255));&quot;&gt;5 *Request&lt;/span&gt;&lt;/p&gt;&lt;p style=&quot;margin:0px;margin-left:4px;&quot;&gt;6 *Response&lt;/p&gt;&lt;p style=&quot;margin:0px;margin-left:4px;&quot;&gt;7 error&lt;/p&gt;" style="verticalAlign=top;align=left;overflow=fill;html=1;whiteSpace=wrap;" vertex="1" parent="1">
          <mxGeometry x="720" y="1130" width="240" height="110" as="geometry" />
        </mxCell>
        <mxCell id="ZHDz7OfgChq-oa7-9p8o-109" style="edgeStyle=orthogonalEdgeStyle;rounded=0;orthogonalLoop=1;jettySize=auto;html=1;exitX=0;exitY=0.5;exitDx=0;exitDy=0;entryX=1;entryY=0.5;entryDx=0;entryDy=0;" edge="1" parent="1" source="ZHDz7OfgChq-oa7-9p8o-92" target="ZHDz7OfgChq-oa7-9p8o-88">
          <mxGeometry relative="1" as="geometry" />
        </mxCell>
        <mxCell id="ZHDz7OfgChq-oa7-9p8o-128" style="edgeStyle=orthogonalEdgeStyle;rounded=0;orthogonalLoop=1;jettySize=auto;html=1;entryX=1;entryY=0.75;entryDx=0;entryDy=0;exitX=0;exitY=0.75;exitDx=0;exitDy=0;" edge="1" parent="1" source="ZHDz7OfgChq-oa7-9p8o-92" target="ZHDz7OfgChq-oa7-9p8o-94">
          <mxGeometry relative="1" as="geometry">
            <mxPoint x="730" y="1560" as="sourcePoint" />
            <mxPoint x="1369.95" y="1430" as="targetPoint" />
            <Array as="points">
              <mxPoint x="680" y="1343" />
              <mxPoint x="680" y="1420" />
              <mxPoint x="1390" y="1420" />
              <mxPoint x="1390" y="1213" />
            </Array>
          </mxGeometry>
        </mxCell>
        <mxCell id="ZHDz7OfgChq-oa7-9p8o-130" value="10" style="edgeLabel;html=1;align=center;verticalAlign=middle;resizable=0;points=[];" vertex="1" connectable="0" parent="ZHDz7OfgChq-oa7-9p8o-128">
          <mxGeometry x="-0.1249" y="-4" relative="1" as="geometry">
            <mxPoint as="offset" />
          </mxGeometry>
        </mxCell>
        <mxCell id="ZHDz7OfgChq-oa7-9p8o-131" style="edgeStyle=orthogonalEdgeStyle;rounded=0;orthogonalLoop=1;jettySize=auto;html=1;exitX=0.5;exitY=1;exitDx=0;exitDy=0;entryX=0.75;entryY=1;entryDx=0;entryDy=0;" edge="1" parent="1" source="ZHDz7OfgChq-oa7-9p8o-92" target="ZHDz7OfgChq-oa7-9p8o-89">
          <mxGeometry relative="1" as="geometry" />
        </mxCell>
        <mxCell id="ZHDz7OfgChq-oa7-9p8o-132" value="9" style="edgeLabel;html=1;align=center;verticalAlign=middle;resizable=0;points=[];" vertex="1" connectable="0" parent="ZHDz7OfgChq-oa7-9p8o-131">
          <mxGeometry x="-0.2033" y="3" relative="1" as="geometry">
            <mxPoint as="offset" />
          </mxGeometry>
        </mxCell>
        <mxCell id="ZHDz7OfgChq-oa7-9p8o-92" value="&lt;p style=&quot;margin:0px;margin-top:4px;text-align:center;&quot;&gt;&lt;b&gt;ProcessError(*Request, error, *Spider) Result&lt;/b&gt;&lt;/p&gt;&lt;hr size=&quot;1&quot; style=&quot;border-style:solid;&quot;&gt;&lt;p style=&quot;margin: 0px 0px 0px 4px;&quot;&gt;8 nil、error&lt;/p&gt;&lt;p style=&quot;margin: 0px 0px 0px 4px;&quot;&gt;9 *Request&lt;/p&gt;&lt;p style=&quot;margin: 0px 0px 0px 4px;&quot;&gt;10 *Response&lt;/p&gt;" style="verticalAlign=top;align=left;overflow=fill;html=1;whiteSpace=wrap;" vertex="1" parent="1">
          <mxGeometry x="720" y="1260" width="240" height="110" as="geometry" />
        </mxCell>
        <mxCell id="ZHDz7OfgChq-oa7-9p8o-100" style="edgeStyle=orthogonalEdgeStyle;rounded=0;orthogonalLoop=1;jettySize=auto;html=1;exitX=1;exitY=0.5;exitDx=0;exitDy=0;entryX=0;entryY=0.25;entryDx=0;entryDy=0;" edge="1" parent="1" source="ZHDz7OfgChq-oa7-9p8o-93" target="ZHDz7OfgChq-oa7-9p8o-96">
          <mxGeometry relative="1" as="geometry" />
        </mxCell>
        <mxCell id="ZHDz7OfgChq-oa7-9p8o-93" value="&lt;p style=&quot;margin:0px;margin-top:4px;text-align:center;&quot;&gt;&lt;b&gt;ProcessRequest(*Request, *Spider) Result&lt;/b&gt;&lt;/p&gt;&lt;hr size=&quot;1&quot; style=&quot;border-style:solid;&quot;&gt;&lt;p style=&quot;margin:0px;margin-left:4px;&quot;&gt;1 nil&lt;/p&gt;&lt;p style=&quot;margin:0px;margin-left:4px;&quot;&gt;2 *Request&lt;/p&gt;&lt;p style=&quot;margin:0px;margin-left:4px;&quot;&gt;3 *Response&lt;/p&gt;&lt;p style=&quot;margin:0px;margin-left:4px;&quot;&gt;4 error&lt;/p&gt;" style="verticalAlign=top;align=left;overflow=fill;html=1;whiteSpace=wrap;" vertex="1" parent="1">
          <mxGeometry x="1120" y="1000" width="240" height="110" as="geometry" />
        </mxCell>
        <mxCell id="ZHDz7OfgChq-oa7-9p8o-102" style="edgeStyle=orthogonalEdgeStyle;rounded=0;orthogonalLoop=1;jettySize=auto;html=1;exitX=0;exitY=0.5;exitDx=0;exitDy=0;entryX=1;entryY=0.5;entryDx=0;entryDy=0;" edge="1" parent="1" source="ZHDz7OfgChq-oa7-9p8o-94" target="ZHDz7OfgChq-oa7-9p8o-91">
          <mxGeometry relative="1" as="geometry" />
        </mxCell>
        <mxCell id="ZHDz7OfgChq-oa7-9p8o-122" value="6" style="edgeLabel;html=1;align=center;verticalAlign=middle;resizable=0;points=[];" vertex="1" connectable="0" parent="ZHDz7OfgChq-oa7-9p8o-102">
          <mxGeometry x="-0.0809" y="-1" relative="1" as="geometry">
            <mxPoint as="offset" />
          </mxGeometry>
        </mxCell>
        <mxCell id="ZHDz7OfgChq-oa7-9p8o-94" value="&lt;p style=&quot;margin:0px;margin-top:4px;text-align:center;&quot;&gt;&lt;b&gt;ProcessResponse(*Request, *Response, *Spider) Result&lt;/b&gt;&lt;/p&gt;&lt;hr size=&quot;1&quot; style=&quot;border-style:solid;&quot;&gt;&lt;p style=&quot;margin:0px;margin-left:4px;&quot;&gt;&lt;span style=&quot;background-color: transparent; color: light-dark(rgb(0, 0, 0), rgb(255, 255, 255));&quot;&gt;5 *Request&lt;/span&gt;&lt;/p&gt;&lt;p style=&quot;margin:0px;margin-left:4px;&quot;&gt;6 *Response&lt;/p&gt;&lt;p style=&quot;margin:0px;margin-left:4px;&quot;&gt;7 error&lt;/p&gt;" style="verticalAlign=top;align=left;overflow=fill;html=1;whiteSpace=wrap;" vertex="1" parent="1">
          <mxGeometry x="1120" y="1130" width="240" height="110" as="geometry" />
        </mxCell>
        <mxCell id="ZHDz7OfgChq-oa7-9p8o-108" style="edgeStyle=orthogonalEdgeStyle;rounded=0;orthogonalLoop=1;jettySize=auto;html=1;exitX=0;exitY=0.5;exitDx=0;exitDy=0;entryX=1;entryY=0.5;entryDx=0;entryDy=0;" edge="1" parent="1" source="ZHDz7OfgChq-oa7-9p8o-95" target="ZHDz7OfgChq-oa7-9p8o-92">
          <mxGeometry relative="1" as="geometry" />
        </mxCell>
        <mxCell id="ZHDz7OfgChq-oa7-9p8o-127" value="8" style="edgeLabel;html=1;align=center;verticalAlign=middle;resizable=0;points=[];" vertex="1" connectable="0" parent="ZHDz7OfgChq-oa7-9p8o-108">
          <mxGeometry x="-0.0941" relative="1" as="geometry">
            <mxPoint as="offset" />
          </mxGeometry>
        </mxCell>
        <mxCell id="ZHDz7OfgChq-oa7-9p8o-95" value="&lt;p style=&quot;margin:0px;margin-top:4px;text-align:center;&quot;&gt;&lt;b&gt;ProcessError(*Request, error, *Spider) Result&lt;/b&gt;&lt;/p&gt;&lt;hr size=&quot;1&quot; style=&quot;border-style:solid;&quot;&gt;&lt;p style=&quot;margin: 0px 0px 0px 4px;&quot;&gt;8 nil、error&lt;/p&gt;&lt;p style=&quot;margin: 0px 0px 0px 4px;&quot;&gt;9 *Request&lt;/p&gt;&lt;p style=&quot;margin: 0px 0px 0px 4px;&quot;&gt;10 *Response&lt;/p&gt;" style="verticalAlign=top;align=left;overflow=fill;html=1;whiteSpace=wrap;" vertex="1" parent="1">
          <mxGeometry x="1120" y="1260" width="240" height="110" as="geometry" />
        </mxCell>
        <mxCell id="ZHDz7OfgChq-oa7-9p8o-101" style="edgeStyle=orthogonalEdgeStyle;rounded=0;orthogonalLoop=1;jettySize=auto;html=1;exitX=0;exitY=0.5;exitDx=0;exitDy=0;entryX=1;entryY=0.5;entryDx=0;entryDy=0;" edge="1" parent="1" source="ZHDz7OfgChq-oa7-9p8o-96" target="ZHDz7OfgChq-oa7-9p8o-94">
          <mxGeometry relative="1" as="geometry" />
        </mxCell>
        <mxCell id="ZHDz7OfgChq-oa7-9p8o-107" style="edgeStyle=orthogonalEdgeStyle;rounded=0;orthogonalLoop=1;jettySize=auto;html=1;exitX=0;exitY=0.75;exitDx=0;exitDy=0;entryX=1;entryY=0.5;entryDx=0;entryDy=0;" edge="1" parent="1" source="ZHDz7OfgChq-oa7-9p8o-96" target="ZHDz7OfgChq-oa7-9p8o-95">
          <mxGeometry relative="1" as="geometry" />
        </mxCell>
        <mxCell id="ZHDz7OfgChq-oa7-9p8o-96" value="Downloader" style="html=1;whiteSpace=wrap;" vertex="1" parent="1">
          <mxGeometry x="1500" y="1160" width="110" height="50" as="geometry" />
        </mxCell>
        <mxCell id="ZHDz7OfgChq-oa7-9p8o-119" value="&lt;p style=&quot;margin:0px;margin-top:4px;text-align:center;&quot;&gt;&lt;b&gt;ErrbackFunc&lt;/b&gt;&lt;/p&gt;&lt;hr size=&quot;1&quot; style=&quot;border-style:solid;&quot;&gt;&lt;p style=&quot;margin:0px;margin-left:4px;&quot;&gt;11 Results&lt;/p&gt;&lt;p style=&quot;margin:0px;margin-left:4px;&quot;&gt;12 error&lt;/p&gt;" style="verticalAlign=top;align=left;overflow=fill;html=1;whiteSpace=wrap;" vertex="1" parent="1">
          <mxGeometry x="110" y="1450" width="240" height="70" as="geometry" />
        </mxCell>
      </root>
    </mxGraphModel>
  </diagram>
</mxfile>
